<svg width="20" height="18" viewBox="0 0 20 18" fill="none" xmlns="http://www.w3.org/2000/svg">
<path d="M18.75 6.00686H16.151L12.374 0.340861C12.2637 0.175366 12.0921 0.0604777 11.8971 0.0214702C11.702 -0.0175374 11.4995 0.0225312 11.334 0.132861C11.1685 0.243191 11.0536 0.414745 11.0146 0.609783C10.9756 0.804821 11.0157 1.00737 11.126 1.17286L14.349 6.00686H5.151L8.374 1.17286C8.42992 1.09094 8.46904 0.998748 8.48909 0.90161C8.50914 0.804473 8.50972 0.704323 8.49081 0.606958C8.47189 0.509594 8.43385 0.416948 8.37889 0.334385C8.32392 0.251821 8.25313 0.18098 8.1706 0.125962C8.08807 0.0709442 7.99545 0.0328418 7.8981 0.013861C7.80075 -0.00511977 7.7006 -0.00460195 7.60345 0.0153843C7.5063 0.0353705 7.41407 0.0744282 7.33212 0.130297C7.25017 0.186165 7.18011 0.257734 7.126 0.340861L3.349 6.00686H0.75C0.551088 6.00686 0.360322 6.08588 0.21967 6.22653C0.0790175 6.36718 0 6.55795 0 6.75686C0 6.95577 0.0790175 7.14654 0.21967 7.28719C0.360322 7.42784 0.551088 7.50686 0.75 7.50686H1.135L2.693 15.2959C2.81885 15.9188 3.15604 16.4791 3.64749 16.882C4.13895 17.2849 4.7545 17.5056 5.39 17.5069H14.111C15.418 17.5069 16.551 16.5769 16.808 15.2959L18.366 7.50686H18.751C18.9499 7.50686 19.1407 7.42784 19.2813 7.28719C19.422 7.14654 19.501 6.95577 19.501 6.75686C19.501 6.55795 19.422 6.36718 19.2813 6.22653C19.1407 6.08588 18.9489 6.00686 18.75 6.00686ZM15.336 15.0019C15.2786 15.2849 15.1253 15.5396 14.902 15.7227C14.6786 15.9058 14.3988 16.0062 14.11 16.0069H5.39C5.10116 16.0062 4.82142 15.9058 4.59805 15.7227C4.37467 15.5396 4.22135 15.2849 4.164 15.0019L2.665 7.50686H16.835L15.336 15.0019Z" fill="#131313"/>
<path d="M12.5 10.7568V12.7568C12.5 12.9557 12.421 13.1465 12.2803 13.2872C12.1397 13.4278 11.9489 13.5068 11.75 13.5068C11.5511 13.5068 11.3603 13.4278 11.2197 13.2872C11.079 13.1465 11 12.9557 11 12.7568V10.7568C11 10.5579 11.079 10.3672 11.2197 10.2265C11.3603 10.0859 11.5511 10.0068 11.75 10.0068C11.9489 10.0068 12.1397 10.0859 12.2803 10.2265C12.421 10.3672 12.5 10.5579 12.5 10.7568ZM7.75 10.0068C7.55109 10.0068 7.36032 10.0859 7.21967 10.2265C7.07902 10.3672 7 10.5579 7 10.7568V12.7568C7 12.9557 7.07902 13.1465 7.21967 13.2872C7.36032 13.4278 7.55109 13.5068 7.75 13.5068C7.94891 13.5068 8.13968 13.4278 8.28033 13.2872C8.42098 13.1465 8.5 12.9557 8.5 12.7568V10.7568C8.5 10.5579 8.42098 10.3672 8.28033 10.2265C8.13968 10.0859 7.94891 10.0068 7.75 10.0068Z" fill="#62A65D"/>
</svg>
