<svg width="271" height="49" viewBox="0 0 271 49" fill="none" xmlns="http://www.w3.org/2000/svg">
<path d="M15.8039 12.203C20.4274 12.203 24.0393 13.1367 26.6399 15.0038C29.2406 16.8709 30.6966 19.605 31.0077 23.2059H22.0054C21.8721 21.561 21.2719 20.3718 20.205 19.6383C19.138 18.9048 17.5821 18.538 15.5371 18.538C13.7589 18.538 12.4364 18.8048 11.5695 19.3382C10.7026 19.8717 10.2692 20.6719 10.2692 21.7388C10.2692 22.539 10.5581 23.2059 11.136 23.7393C11.714 24.2728 12.592 24.7396 13.7701 25.1397C14.9482 25.5398 16.2485 25.8732 17.6711 26.1399C21.9831 26.9846 25.0282 27.8515 26.8067 28.7406C28.5851 29.6297 29.8853 30.6966 30.7077 31.9414C31.5301 33.1861 31.9413 34.7199 31.9413 36.5425C31.9413 40.4101 30.5298 43.3775 27.7069 45.4447C24.884 47.5119 21.0496 48.5455 16.204 48.5455C11.1361 48.5455 7.19046 47.4564 4.36776 45.278C1.54505 43.0997 0.0890222 40.1434 0 36.4091H9.00224C9.00224 38.1874 9.69128 39.5989 11.0694 40.6435C12.4476 41.6882 14.1813 42.2106 16.2707 42.2106C18.049 42.2106 19.5271 41.8216 20.7052 41.0436C21.8832 40.2656 22.4723 39.1876 22.4723 37.8094C22.4723 36.9203 22.1055 36.1868 21.372 35.6089C20.6385 35.0309 19.6049 34.5197 18.2712 34.0751C16.9376 33.6305 14.8704 33.1193 12.0697 32.5413C9.84692 32.0967 7.86863 31.4966 6.13486 30.7409C4.4011 29.9851 3.07857 28.996 2.16721 27.7735C1.25585 26.551 0.8002 25.0506 0.8002 23.2724C0.8002 21.0052 1.3448 19.027 2.43394 17.3376C3.52308 15.6482 5.19016 14.3702 7.43519 13.5033C9.68021 12.6364 12.4697 12.203 15.8039 12.203ZM47.2117 0V47.6119H37.7427V0H47.2117ZM70.5509 12.203C80.598 12.2475 85.6213 15.5149 85.6213 22.0055V40.2767C85.6213 43.6552 86.0214 46.1005 86.8216 47.6119H77.2192C76.8636 46.5449 76.6413 45.4335 76.5524 44.2777C73.7517 47.1229 69.8841 48.5454 64.9495 48.5454C61.3486 48.5454 58.4922 47.6341 56.3807 45.8114C54.2692 43.9888 53.2133 41.4547 53.2133 38.2095C53.2133 35.0532 54.2135 32.6081 56.214 30.8744C58.259 29.0517 61.9711 27.8959 67.3501 27.4068C71.1734 27.0067 73.596 26.5066 74.6186 25.9065C75.6412 25.3063 76.1523 24.3839 76.1523 23.1391C76.1523 21.5832 75.6855 20.4274 74.752 19.6716C73.8184 18.9158 72.2625 18.538 70.0841 18.538C68.0836 18.538 66.5723 18.9492 65.5497 19.7716C64.5271 20.594 63.9271 21.9165 63.7492 23.7393H54.2802C54.5025 19.9606 56.0584 17.0933 58.948 15.1371C61.8377 13.181 65.705 12.203 70.5509 12.203ZM62.6822 37.8094C62.6822 40.7435 64.616 42.2105 68.4837 42.2105C73.5516 42.166 76.1076 39.5654 76.1523 34.4086V30.741C75.3965 31.4967 73.4849 32.0524 70.4175 32.408C67.7502 32.7192 65.794 33.2638 64.5494 34.0418C63.3047 34.8198 62.6822 36.0757 62.6822 37.8094ZM126.565 0V47.6119H117.563V43.2108H117.429C115.384 46.7673 111.894 48.5454 106.96 48.5454C102.203 48.5454 98.4358 46.8117 95.6571 43.3441C92.8784 39.8766 91.4894 35.4535 91.4894 30.0742C91.4894 24.8285 92.9009 20.5385 95.7238 17.2043C98.5467 13.8701 102.225 12.203 106.76 12.203C108.849 12.203 110.817 12.6365 112.661 13.5034C114.506 14.3703 115.94 15.6484 116.962 17.3377H117.096V0H126.565ZM100.958 30.3409C100.958 33.4972 101.703 36.1313 103.192 38.2429C104.681 40.3544 106.715 41.4103 109.294 41.4103C112.006 41.4103 114.039 40.4212 115.395 38.4429C116.751 36.4646 117.429 33.7417 117.429 30.2742C117.429 26.8067 116.718 24.117 115.295 22.2055C113.873 20.2941 111.85 19.3382 109.227 19.3382C106.515 19.3382 104.459 20.3384 103.059 22.3389C101.659 24.3394 100.958 27.0067 100.958 30.3409ZM144.036 0V25.5397L155.972 13.1366H167.175L154.172 25.8064L168.642 47.6119H157.172L147.703 32.208L144.036 35.7422V47.6119H134.567V0H144.036ZM188.714 12.203C194.226 12.203 198.583 13.8813 201.784 17.2376C204.984 20.594 206.585 24.9842 206.585 30.4076C206.585 35.8756 204.951 40.2654 201.684 43.5775C198.416 46.8897 194.093 48.5454 188.714 48.5454C183.246 48.5454 178.911 46.8672 175.71 43.5109C172.51 40.1545 170.909 35.7869 170.909 30.4076C170.909 24.8505 172.543 20.4271 175.81 17.1376C179.078 13.8481 183.379 12.203 188.714 12.203ZM180.378 30.4076C180.378 33.9195 181.09 36.6311 182.512 38.5429C183.935 40.4548 186.002 41.4103 188.714 41.4103C191.514 41.4103 193.615 40.4323 195.015 38.4763C196.416 36.5202 197.116 33.8308 197.116 30.4076C197.116 26.851 196.393 24.117 194.949 22.2055C193.504 20.2941 191.403 19.3382 188.647 19.3382C185.98 19.3382 183.935 20.2939 182.512 22.2055C181.089 24.1171 180.378 26.851 180.378 30.4076ZM232.858 12.203C233.658 12.203 234.347 12.3142 234.925 12.5365V21.3387C233.903 21.1164 232.769 21.0052 231.524 21.0052C225.301 21.0052 222.189 24.6952 222.189 32.0747V47.6119H212.72V13.1366H221.722V19.5382H221.855C222.789 17.3155 224.267 15.5372 226.29 14.2035C228.312 12.8699 230.502 12.203 232.858 12.203ZM248.128 13.1366V32.6748C248.128 35.3421 248.551 37.4093 249.395 38.8764C250.24 40.3434 251.841 41.0769 254.197 41.0769C256.82 41.0769 258.698 40.2989 259.831 38.743C260.965 37.1871 261.532 34.6977 261.532 31.2745V13.1366H271.001V47.6119H261.999V42.8107H261.799C259.442 46.634 255.908 48.5454 251.196 48.5454C246.706 48.5454 243.494 47.4007 241.56 45.1112C239.626 42.8218 238.659 39.2988 238.659 34.5419V13.1366H248.128Z" fill="#404040"/>
</svg>
