<svg width="54" height="31" viewBox="0 0 54 31" fill="none" xmlns="http://www.w3.org/2000/svg">
<path d="M29.9093 9.46559C29.0161 8.14532 26.6156 7.09679 23.7702 6.94732C23.539 6.93439 23.3338 6.79732 23.2344 6.59065C23.1344 6.38225 23.1546 6.13586 23.2885 5.94839L26.4432 1.51665H19.6005L22.7552 5.94839C22.888 6.13586 22.9093 6.38225 22.8093 6.59065C22.7088 6.79732 22.5036 6.93439 22.2734 6.94732C19.414 7.09839 17.0046 8.15572 16.1218 9.48639H29.815C29.8156 9.48546 29.8536 9.47706 29.9093 9.46559Z" fill="#FBCD48"/>
<path d="M24.904 22.8615C24.7655 22.8615 24.6275 22.8588 24.4874 22.8577C24.415 22.8631 23.9578 22.8927 23.2468 22.8927C23.1311 22.8927 22.9999 22.8901 22.8723 22.8891C22.589 24.8536 21.8458 27.4568 19.8796 29.0724H29.304C27.3139 27.4369 26.575 24.7885 26.2994 22.8156C25.84 22.8448 25.375 22.8615 24.904 22.8615Z" fill="#FBCD48"/>
<path d="M11.7989 14.0073C11.6792 15.1635 11.5442 16.4735 12.2578 17.6192C15.1016 22.1855 24.3604 21.6011 24.4557 21.5932C39.1978 21.8807 48.2073 6.87187 48.2969 6.7208C48.3584 6.61667 48.4469 6.53173 48.5546 6.47707L50.039 5.71826H48.1417C42.4828 8.31453 30.4478 10.6411 29.9338 10.7391L14.4161 10.7511C13.051 10.7511 11.9328 11.8016 11.8718 13.1453C11.8593 13.4093 11.8297 13.7 11.7989 14.0073Z" fill="#FBCD48"/>
<path d="M14.4161 10.7511L29.9338 10.7391C30.4478 10.6411 42.4828 8.31455 48.1417 5.71828H50.039L48.5546 6.47708C48.4469 6.53175 48.3584 6.61668 48.2969 6.72081C48.2073 6.87188 39.1978 21.8807 24.4557 21.5932C24.3604 21.6011 15.1016 22.1855 12.2578 17.6192C11.5442 16.4735 11.6792 15.1635 11.7989 14.0073C11.8297 13.7 11.8593 13.4093 11.8718 13.1453C11.9328 11.8016 13.051 10.7511 14.4161 10.7511ZM22.2734 6.94735C22.5036 6.93441 22.7088 6.79735 22.8093 6.59068C22.9093 6.38228 22.888 6.13588 22.7552 5.94841L19.6005 1.51668H26.4432L23.2885 5.94841C23.1546 6.13588 23.1344 6.38228 23.2344 6.59068C23.3338 6.79735 23.539 6.93441 23.7702 6.94735C26.6156 7.09681 29.0161 8.14535 29.9093 9.46561C29.8536 9.47708 29.815 9.48641 29.815 9.48641H16.1218C17.0046 8.15575 19.414 7.09841 22.2734 6.94735ZM29.3041 29.0724H19.8797C21.8458 27.4568 22.589 24.8536 22.8724 22.8891C23 22.8901 23.1312 22.8927 23.2469 22.8927C23.9578 22.8927 24.415 22.8631 24.4874 22.8577C24.6276 22.8588 24.7656 22.8615 24.9041 22.8615C25.375 22.8615 25.8401 22.8448 26.2994 22.8156C26.575 24.7885 27.314 27.4369 29.3041 29.0724ZM5.64371 16.6833C7.56771 18.4525 9.55784 20.2833 9.35051 21.5453C9.24784 22.1661 8.57238 22.7573 7.34424 23.3016C7.02504 23.4421 6.88024 23.8156 7.02184 24.1349C7.12544 24.3719 7.35838 24.5115 7.60051 24.5115C7.68544 24.5115 7.77291 24.4943 7.85624 24.4577C9.52184 23.7208 10.4188 22.8355 10.5973 21.7511C10.9182 19.8145 8.86971 17.9317 6.49944 15.7531C2.84424 12.3911 0.396377 9.80161 2.21251 7.05935C2.91971 5.99068 3.75731 5.45521 4.77291 5.42294C7.58064 5.32494 10.8792 8.93801 12.0396 10.326C11.214 10.9812 10.6598 11.9588 10.6088 13.0855C10.5969 13.3292 10.5697 13.5959 10.5396 13.8787C10.414 15.1 10.2412 16.7744 11.1838 18.2869C13.3453 21.7583 18.3718 22.6411 21.5921 22.8396C21.2281 25.1437 20.1636 28.3057 17.0812 29.0916C16.7729 29.1713 16.5713 29.4683 16.6104 29.7849C16.6505 30.1 16.9197 30.338 17.238 30.338H31.9448C32.2636 30.338 32.5322 30.1 32.5724 29.7849C32.612 29.4683 32.4109 29.1713 32.1016 29.0916C28.9578 28.2901 27.914 25.0167 27.5708 22.7016C40.3932 21.1749 48.3213 9.07601 49.2874 7.52294L52.9541 5.64895C53.2145 5.51668 53.3505 5.22241 53.2812 4.93801C53.2125 4.65308 52.9593 4.45361 52.6666 4.45361H48.0026C47.9098 4.45361 47.8193 4.47441 47.7344 4.51254C43.3854 6.54641 34.6062 8.48641 31.2078 9.19841C30.3625 7.50468 28.0104 6.18174 24.9573 5.78494L28.1849 1.25214C28.3224 1.05774 28.3406 0.805746 28.2317 0.594812C28.1229 0.384946 27.9068 0.252144 27.6697 0.252144H18.374C18.136 0.252144 17.9202 0.384946 17.812 0.594812C17.703 0.805746 17.7213 1.05774 17.8588 1.25214L21.086 5.78494C17.8614 6.20361 15.412 7.65415 14.7052 9.48641H14.4161C13.977 9.48641 13.5614 9.57241 13.1688 9.70681C12.0901 8.38494 8.36771 4.15575 4.87024 4.15575C4.82504 4.15575 4.77864 4.15575 4.73278 4.15828C3.29731 4.20361 2.09531 4.94481 1.15784 6.36148C-1.39322 10.2131 2.50838 13.8016 5.64371 16.6833Z" fill="#252322"/>
</svg>
