<svg width="512" height="388" viewBox="0 0 512 388" fill="none" xmlns="http://www.w3.org/2000/svg">
<path d="M334.808 170.992L221.694 109.102C215.19 105.543 207.503 105.676 201.128 109.453C194.749 113.234 190.944 119.914 190.944 127.328V250.047C190.944 257.426 194.726 264.094 201.062 267.879C204.37 269.855 208.038 270.848 211.714 270.848C215.154 270.842 218.538 269.982 221.562 268.344L334.679 207.52C337.974 205.748 340.73 203.12 342.655 199.913C344.58 196.705 345.603 193.037 345.616 189.297C345.631 185.555 344.635 181.878 342.733 178.656C340.83 175.434 338.092 172.786 334.808 170.992ZM220.948 234.609V142.891L305.488 189.148L220.948 234.609Z" fill="black"/>
<path d="M508.232 91.5266L508.209 91.2926C507.775 87.1717 503.459 50.5158 485.639 31.8709C465.041 9.94096 441.688 7.27697 430.458 5.99998C429.61 5.90633 428.762 5.80466 427.915 5.69498L427.02 5.60198C359.335 0.679998 257.112 0.00799997 256.089 0.00399998L255.999 0L255.909 0.00399998C254.886 0.00799997 152.663 0.679998 84.3667 5.60198L83.4647 5.69498C82.7377 5.79298 81.9367 5.88298 81.0657 5.98498C69.9647 7.26497 46.8628 9.93396 26.2069 32.6559C9.23396 51.1018 4.32798 86.9727 3.82398 91.0036L3.76599 91.5266C3.61299 93.2416 0 134.066 0 175.05V213.362C0 254.347 3.61299 295.171 3.76599 296.89L3.79299 297.147C4.22698 301.202 8.53897 337.187 26.2769 355.839C45.6448 377.034 70.1327 379.838 83.3047 381.346C85.3867 381.584 87.1797 381.787 88.4017 382.002L89.5856 382.166C128.667 385.885 251.202 387.716 256.397 387.791L256.554 387.795L256.71 387.791C257.733 387.787 359.952 387.115 427.639 382.194L428.533 382.1C429.389 381.986 430.35 381.886 431.404 381.776C442.444 380.604 465.42 378.171 485.791 355.756C502.764 337.308 507.674 301.436 508.174 297.409L508.232 296.886C508.385 295.167 512.002 254.346 512.002 213.362V175.05C511.998 134.065 508.385 93.2456 508.232 91.5266ZM481.994 213.362C481.994 251.296 478.682 290.362 478.369 293.948C477.096 303.828 471.919 326.522 463.65 335.511C450.9 349.538 437.803 350.929 428.24 351.941C427.174 352.05 426.109 352.17 425.045 352.3C359.577 357.034 261.214 357.76 256.683 357.788C251.601 357.714 130.858 355.866 92.9686 352.347C91.0266 352.03 88.9287 351.788 86.7187 351.538C75.5037 350.253 60.1518 348.495 48.3478 335.511L48.0698 335.214C39.9448 326.749 34.9179 305.526 33.6399 294.065C33.4019 291.355 30.0039 251.827 30.0039 213.362V175.05C30.0039 137.16 33.3089 98.1366 33.6289 94.4766C35.1489 82.8397 40.4218 61.5198 48.3478 52.9018C61.4878 38.4488 75.3437 36.8479 84.5077 35.7889C85.3827 35.6869 86.1987 35.5939 86.9527 35.4959C153.374 30.7379 252.444 30.0309 255.999 30.0039C259.554 30.0269 358.589 30.7379 424.42 35.4959C425.228 35.5979 426.111 35.6989 427.06 35.8089C436.486 36.8829 450.732 38.5078 463.807 52.4528L463.927 52.5818C472.053 61.0468 477.08 82.6407 478.357 94.3316C478.584 96.8906 481.994 136.503 481.994 175.05V213.362Z" fill="black"/>
</svg>
